<mxfile host="app.diagrams.net" agent="Mozilla/5.0 (Windows NT 10.0; Win64; x64) AppleWebKit/537.36 (KHTML, like Gecko) Chrome/130.0.0.0 Safari/537.36" version="24.8.4">
  <diagram name="Side-1" id="vFCXR3PuOX1A6E9hDLxf">
    <mxGraphModel dx="1050" dy="556" grid="1" gridSize="10" guides="1" tooltips="1" connect="1" arrows="1" fold="1" page="1" pageScale="1" pageWidth="827" pageHeight="1169" math="0" shadow="0">
      <root>
        <mxCell id="0" />
        <mxCell id="1" parent="0" />
        <mxCell id="AlBnSS8t_bm0oWQkgIkq-3" value="ADC Control" style="rounded=0;whiteSpace=wrap;html=1;" vertex="1" parent="1">
          <mxGeometry x="480" y="320" width="120" height="340" as="geometry" />
        </mxCell>
        <mxCell id="AlBnSS8t_bm0oWQkgIkq-4" style="edgeStyle=orthogonalEdgeStyle;rounded=0;orthogonalLoop=1;jettySize=auto;html=1;entryX=0.021;entryY=0.095;entryDx=0;entryDy=0;entryPerimeter=0;" edge="1" parent="1">
          <mxGeometry relative="1" as="geometry">
            <mxPoint x="357.48" y="380" as="sourcePoint" />
            <mxPoint x="480" y="380.4" as="targetPoint" />
          </mxGeometry>
        </mxCell>
        <mxCell id="AlBnSS8t_bm0oWQkgIkq-6" value="Pulse Gen 2&lt;div&gt;CNV Pulse&lt;/div&gt;" style="rounded=0;whiteSpace=wrap;html=1;" vertex="1" parent="1">
          <mxGeometry x="240" y="420" width="120" height="60" as="geometry" />
        </mxCell>
        <mxCell id="AlBnSS8t_bm0oWQkgIkq-7" style="edgeStyle=orthogonalEdgeStyle;rounded=0;orthogonalLoop=1;jettySize=auto;html=1;entryX=0.017;entryY=0.345;entryDx=0;entryDy=0;entryPerimeter=0;" edge="1" parent="1">
          <mxGeometry relative="1" as="geometry">
            <mxPoint x="360" y="470" as="sourcePoint" />
            <mxPoint x="482.03999999999996" y="470.4" as="targetPoint" />
          </mxGeometry>
        </mxCell>
        <mxCell id="AlBnSS8t_bm0oWQkgIkq-8" value="Pulse Gen 3&lt;div&gt;&lt;span style=&quot;background-color: initial;&quot;&gt;DCN Pulse&lt;/span&gt;&lt;/div&gt;" style="rounded=0;whiteSpace=wrap;html=1;" vertex="1" parent="1">
          <mxGeometry x="240" y="510" width="120" height="60" as="geometry" />
        </mxCell>
        <mxCell id="AlBnSS8t_bm0oWQkgIkq-10" value="Pulse Gen 4&lt;div&gt;DSC Pulse&lt;/div&gt;" style="rounded=0;whiteSpace=wrap;html=1;" vertex="1" parent="1">
          <mxGeometry x="240" y="600" width="120" height="60" as="geometry" />
        </mxCell>
        <mxCell id="AlBnSS8t_bm0oWQkgIkq-11" style="edgeStyle=orthogonalEdgeStyle;rounded=0;orthogonalLoop=1;jettySize=auto;html=1;entryX=0;entryY=0.625;entryDx=0;entryDy=0;entryPerimeter=0;" edge="1" parent="1">
          <mxGeometry relative="1" as="geometry">
            <mxPoint x="360" y="560" as="sourcePoint" />
            <mxPoint x="480" y="560" as="targetPoint" />
          </mxGeometry>
        </mxCell>
        <mxCell id="AlBnSS8t_bm0oWQkgIkq-12" style="edgeStyle=orthogonalEdgeStyle;rounded=0;orthogonalLoop=1;jettySize=auto;html=1;entryX=0;entryY=0.906;entryDx=0;entryDy=0;entryPerimeter=0;" edge="1" parent="1">
          <mxGeometry relative="1" as="geometry">
            <mxPoint x="360" y="650" as="sourcePoint" />
            <mxPoint x="480" y="649.9200000000001" as="targetPoint" />
          </mxGeometry>
        </mxCell>
        <mxCell id="AlBnSS8t_bm0oWQkgIkq-13" value="20 MHz SPI CLK" style="text;html=1;align=center;verticalAlign=middle;resizable=0;points=[];autosize=1;strokeColor=none;fillColor=none;" vertex="1" parent="1">
          <mxGeometry x="360" y="360" width="110" height="30" as="geometry" />
        </mxCell>
        <mxCell id="AlBnSS8t_bm0oWQkgIkq-14" value="35ns CNV pulse" style="text;html=1;align=center;verticalAlign=middle;resizable=0;points=[];autosize=1;strokeColor=none;fillColor=none;" vertex="1" parent="1">
          <mxGeometry x="360" y="450" width="110" height="30" as="geometry" />
        </mxCell>
        <mxCell id="AlBnSS8t_bm0oWQkgIkq-15" value="30 ns DCN pulse" style="text;html=1;align=center;verticalAlign=middle;resizable=0;points=[];autosize=1;strokeColor=none;fillColor=none;" vertex="1" parent="1">
          <mxGeometry x="360" y="540" width="110" height="30" as="geometry" />
        </mxCell>
        <mxCell id="AlBnSS8t_bm0oWQkgIkq-16" value="30 ns DSC pulse" style="text;html=1;align=center;verticalAlign=middle;resizable=0;points=[];autosize=1;strokeColor=none;fillColor=none;" vertex="1" parent="1">
          <mxGeometry x="360" y="630" width="110" height="30" as="geometry" />
        </mxCell>
        <mxCell id="AlBnSS8t_bm0oWQkgIkq-21" value="Pulse Gen 1&lt;div&gt;SPI CLK&lt;/div&gt;" style="rounded=0;whiteSpace=wrap;html=1;" vertex="1" parent="1">
          <mxGeometry x="240" y="330" width="120" height="60" as="geometry" />
        </mxCell>
        <mxCell id="AlBnSS8t_bm0oWQkgIkq-24" value="" style="endArrow=none;html=1;rounded=0;exitX=1.008;exitY=0.334;exitDx=0;exitDy=0;exitPerimeter=0;startArrow=classicThin;startFill=1;" edge="1" parent="1">
          <mxGeometry width="50" height="50" relative="1" as="geometry">
            <mxPoint x="360.96000000000004" y="340.03999999999996" as="sourcePoint" />
            <mxPoint x="480" y="340" as="targetPoint" />
          </mxGeometry>
        </mxCell>
        <mxCell id="AlBnSS8t_bm0oWQkgIkq-25" value="" style="endArrow=none;html=1;rounded=0;exitX=1.008;exitY=0.334;exitDx=0;exitDy=0;exitPerimeter=0;startArrow=classicThin;startFill=1;" edge="1" parent="1">
          <mxGeometry width="50" height="50" relative="1" as="geometry">
            <mxPoint x="361" y="430" as="sourcePoint" />
            <mxPoint x="480" y="430" as="targetPoint" />
          </mxGeometry>
        </mxCell>
        <mxCell id="AlBnSS8t_bm0oWQkgIkq-26" value="" style="endArrow=none;html=1;rounded=0;exitX=1.008;exitY=0.334;exitDx=0;exitDy=0;exitPerimeter=0;startArrow=classicThin;startFill=1;" edge="1" parent="1">
          <mxGeometry width="50" height="50" relative="1" as="geometry">
            <mxPoint x="361" y="524" as="sourcePoint" />
            <mxPoint x="480" y="524" as="targetPoint" />
          </mxGeometry>
        </mxCell>
        <mxCell id="AlBnSS8t_bm0oWQkgIkq-27" value="" style="endArrow=none;html=1;rounded=0;exitX=1.008;exitY=0.334;exitDx=0;exitDy=0;exitPerimeter=0;startArrow=classicThin;startFill=1;" edge="1" parent="1">
          <mxGeometry width="50" height="50" relative="1" as="geometry">
            <mxPoint x="361" y="610" as="sourcePoint" />
            <mxPoint x="480" y="610" as="targetPoint" />
          </mxGeometry>
        </mxCell>
        <mxCell id="AlBnSS8t_bm0oWQkgIkq-28" value="SPI CLK Start" style="text;html=1;align=center;verticalAlign=middle;resizable=0;points=[];autosize=1;strokeColor=none;fillColor=none;" vertex="1" parent="1">
          <mxGeometry x="370" y="320" width="100" height="30" as="geometry" />
        </mxCell>
        <mxCell id="AlBnSS8t_bm0oWQkgIkq-29" value="CNV Pulse Start" style="text;html=1;align=center;verticalAlign=middle;resizable=0;points=[];autosize=1;strokeColor=none;fillColor=none;" vertex="1" parent="1">
          <mxGeometry x="365" y="410" width="110" height="30" as="geometry" />
        </mxCell>
        <mxCell id="AlBnSS8t_bm0oWQkgIkq-30" value="DCN Pulse Start" style="text;html=1;align=center;verticalAlign=middle;resizable=0;points=[];autosize=1;strokeColor=none;fillColor=none;" vertex="1" parent="1">
          <mxGeometry x="365" y="500" width="110" height="30" as="geometry" />
        </mxCell>
        <mxCell id="AlBnSS8t_bm0oWQkgIkq-31" value="DSC Pulse Start" style="text;html=1;align=center;verticalAlign=middle;resizable=0;points=[];autosize=1;strokeColor=none;fillColor=none;" vertex="1" parent="1">
          <mxGeometry x="365" y="590" width="110" height="30" as="geometry" />
        </mxCell>
      </root>
    </mxGraphModel>
  </diagram>
</mxfile>
